<?xml version="1.0" encoding="UTF-8" standalone="no"?>
<svg
   xmlns:dc="http://purl.org/dc/elements/1.1/"
   xmlns:cc="http://creativecommons.org/ns#"
   xmlns:rdf="http://www.w3.org/1999/02/22-rdf-syntax-ns#"
   xmlns:svg="http://www.w3.org/2000/svg"
   xmlns="http://www.w3.org/2000/svg"
   id="svg8"
   version="1.1"
   viewBox="0 0 46.610352 41.657421"
   height="41.657421mm"
   width="46.610352mm">
  <defs
     id="defs2" />
  <metadata
     id="metadata5">
    <rdf:RDF>
      <cc:Work
         rdf:about="">
        <dc:format>image/svg+xml</dc:format>
        <dc:type
           rdf:resource="http://purl.org/dc/dcmitype/StillImage" />
        <dc:title></dc:title>
      </cc:Work>
    </rdf:RDF>
  </metadata>
  <g
     transform="translate(103.43613,-216.45106)"
     id="layer1">
    <path
       id="path4744"
       d="m -90.986295,216.59158 c -1.07727,0 -1.94454,0.86727 -1.94454,1.94454 v 1.85567 a 11.540534,11.540534 0 0 0 -3.56456,2.05939 l -1.93806,-1.11892 c -0.93295,-0.53863 -2.117635,-0.22121 -2.656265,0.71174 l -1.94454,3.36805 c -0.53864,0.93295 -0.22121,2.11764 0.71173,2.65628 l 1.93503,1.11722 a 11.540534,11.540534 0 0 0 -0.1948,2.0597 11.540534,11.540534 0 0 0 0.19056,2.06227 l -1.93079,1.11472 c -0.93294,0.53863 -1.25037,1.72332 -0.71173,2.65627 l 1.94454,3.36805 c 0.53863,0.93295 1.723315,1.25037 2.656265,0.71174 l 1.92824,-1.11324 a 11.540534,11.540534 0 0 0 3.57438,2.05058 v 1.75 c 0,1.07728 0.86727,1.94454 1.94454,1.94454 h 3.88908 c 1.07727,0 1.94454,-0.86726 1.94454,-1.94454 v -1.74687 a 11.540534,11.540534 0 0 0 3.56456,-2.05939 l 1.93801,1.11892 c 0.93294,0.53863 2.11768,0.22121 2.65632,-0.71174 l 1.94455,-3.36805 c 0.538631,-0.93295 0.22116,-2.11764 -0.71179,-2.65627 l -1.93504,-1.11723 a 11.540534,11.540534 0 0 0 0.1948,-2.05976 11.540534,11.540534 0 0 0 -0.19049,-2.06221 l 1.93073,-1.11471 c 0.93295,-0.53864 1.250421,-1.72333 0.71179,-2.65628 l -1.94455,-3.36805 c -0.53864,-0.93295 -1.72338,-1.25037 -2.65632,-0.71174 l -1.92818,1.11324 a 11.540534,11.540534 0 0 0 -3.57439,-2.05057 v -1.85881 c 0,-1.07727 -0.86727,-1.94454 -1.94454,-1.94454 z m 1.94454,9.23733 a 5.3620101,5.3620101 0 0 1 5.362,5.362 5.3620101,5.3620101 0 0 1 -5.362,5.362 5.3620101,5.3620101 0 0 1 -5.362,-5.362 5.3620101,5.3620101 0 0 1 5.362,-5.362 z"
       style="fill:#bebec0;fill-opacity:1;fill-rule:evenodd;stroke:#bebec0;stroke-width:0.28104937;stroke-linecap:round;stroke-linejoin:round;stroke-miterlimit:4;stroke-dasharray:none;stroke-dashoffset:0;stroke-opacity:1;paint-order:normal" />
    <path
       id="path4744-8"
       d="m -74.517875,239.85735 c -0.670139,0 -1.209651,0.53951 -1.209651,1.20966 v 1.15436 a 7.1790737,7.1790737 0 0 0 -2.217419,1.28109 l -1.20562,-0.69604 c -0.58036,-0.33509 -1.31733,-0.13762 -1.65239,0.44274 l -1.20966,2.09518 c -0.33507,0.58037 -0.13761,1.31732 0.44275,1.6524 l 1.20374,0.695 a 7.1790737,7.1790737 0 0 0 -0.12119,1.28129 7.1790737,7.1790737 0 0 0 0.11855,1.28288 l -1.2011,0.69344 c -0.58036,0.33506 -0.77782,1.07202 -0.44275,1.6524 l 1.20966,2.09519 c 0.33506,0.58035 1.07203,0.77782 1.65239,0.44274 l 1.19951,-0.69252 a 7.1790737,7.1790737 0 0 0 2.223529,1.27562 v 1.08864 c 0,0.67013 0.539512,1.20964 1.209651,1.20964 h 2.4193 c 0.67015,0 1.209651,-0.53951 1.209651,-1.20964 v -1.0867 a 7.1790737,7.1790737 0 0 0 2.217428,-1.2811 l 1.205582,0.69606 c 0.580358,0.33508 1.31736,0.13761 1.652429,-0.44274 l 1.20964,-2.09519 c 0.335079,-0.58038 0.137589,-1.31734 -0.442769,-1.6524 l -1.203741,-0.695 a 7.1790737,7.1790737 0 0 0 0.121179,-1.28132 7.1790737,7.1790737 0 0 0 -0.118509,-1.28284 l 1.201071,-0.69345 c 0.580358,-0.33508 0.777848,-1.07203 0.442769,-1.6524 l -1.20964,-2.09518 c -0.335069,-0.58036 -1.072071,-0.77783 -1.652429,-0.44274 l -1.19947,0.69251 a 7.1790737,7.1790737 0 0 0 -2.22354,-1.27561 v -1.15631 c 0,-0.67015 -0.539501,-1.20966 -1.209651,-1.20966 z m 1.209651,5.7463 a 3.3355706,3.3355706 0 0 1 3.33556,3.33557 3.3355706,3.3355706 0 0 1 -3.33556,3.33556 3.3355706,3.3355706 0 0 1 -3.33557,-3.33556 3.3355706,3.3355706 0 0 1 3.33557,-3.33557 z"
       style="fill:#bebec0;fill-opacity:1;fill-rule:evenodd;stroke:#bebec0;stroke-width:0.1748337;stroke-linecap:round;stroke-linejoin:round;stroke-miterlimit:4;stroke-dasharray:none;stroke-dashoffset:0;stroke-opacity:1;paint-order:normal" />
    <path
       id="path4744-8-9"
       d="m -66.989804,217.62347 c -0.670132,0 -1.209641,0.53951 -1.209641,1.20965 v 1.15437 a 7.1790737,7.1790737 0 0 0 -2.21742,1.28109 l -1.205619,-0.69606 c -0.580361,-0.33507 -1.317331,-0.1376 -1.652402,0.44276 l -1.209649,2.09518 c -0.335071,0.58037 -0.137609,1.31733 0.442749,1.6524 l 1.20374,0.695 a 7.1790737,7.1790737 0 0 0 -0.12119,1.28129 7.1790737,7.1790737 0 0 0 0.118542,1.28288 l -1.201092,0.69343 c -0.580358,0.33507 -0.77782,1.07204 -0.442749,1.65241 l 1.209649,2.09517 c 0.335071,0.58037 1.072041,0.77784 1.652402,0.44276 l 1.199499,-0.69252 a 7.1790737,7.1790737 0 0 0 2.22354,1.27561 v 1.08864 c 0,0.67015 0.539509,1.20964 1.209641,1.20964 h 2.41931 c 0.670139,0 1.209649,-0.53949 1.209649,-1.20964 v -1.08668 a 7.1790737,7.1790737 0 0 0 2.21742,-1.2811 l 1.205581,0.69605 c 0.580369,0.33508 1.317369,0.13761 1.65244,-0.44276 l 1.209648,-2.09517 c 0.335071,-0.58037 0.137581,-1.31734 -0.442788,-1.65241 l -1.20373,-0.69499 a 7.1790737,7.1790737 0 0 0 0.12118,-1.28132 7.1790737,7.1790737 0 0 0 -0.118502,-1.28285 l 1.201052,-0.69344 c 0.580369,-0.33507 0.777859,-1.07203 0.442788,-1.6524 l -1.209648,-2.09518 c -0.335071,-0.58036 -1.072071,-0.77783 -1.65244,-0.44276 l -1.199462,0.69252 a 7.1790737,7.1790737 0 0 0 -2.223539,-1.27561 v -1.15631 c 0,-0.67014 -0.53951,-1.20965 -1.209649,-1.20965 z m 1.209659,5.7463 a 3.3355706,3.3355706 0 0 1 3.33556,3.33557 3.3355706,3.3355706 0 0 1 -3.33556,3.33557 3.3355706,3.3355706 0 0 1 -3.335571,-3.33557 3.3355706,3.3355706 0 0 1 3.335571,-3.33557 z"
       style="fill:#bebec0;fill-opacity:1;fill-rule:evenodd;stroke:#bebec0;stroke-width:0.1748337;stroke-linecap:round;stroke-linejoin:round;stroke-miterlimit:4;stroke-dasharray:none;stroke-dashoffset:0;stroke-opacity:1;paint-order:normal" />
  </g>
</svg>
