<?xml version="1.0" encoding="UTF-8" standalone="no"?>
<svg
   xmlns:dc="http://purl.org/dc/elements/1.1/"
   xmlns:cc="http://creativecommons.org/ns#"
   xmlns:rdf="http://www.w3.org/1999/02/22-rdf-syntax-ns#"
   xmlns:svg="http://www.w3.org/2000/svg"
   xmlns="http://www.w3.org/2000/svg"
   id="svg8"
   version="1.1"
   viewBox="0 0 28.989329 19.328425"
   height="19.328426mm"
   width="28.98933mm">
  <defs
     id="defs2">
    <clipPath
       id="clipPath4508"
       clipPathUnits="userSpaceOnUse">
      <rect
         y="-1329.7518"
         x="-1176.0563"
         height="220.05128"
         width="335.96713"
         id="rect4510"
         style="fill:#ff0000;fill-opacity:1;fill-rule:evenodd;stroke:none;stroke-width:15.29058743;stroke-linecap:round;stroke-linejoin:round;stroke-miterlimit:4;stroke-dasharray:none;stroke-dashoffset:0;stroke-opacity:1;paint-order:normal" />
    </clipPath>
  </defs>
  <metadata
     id="metadata5">
    <rdf:RDF>
      <cc:Work
         rdf:about="">
        <dc:format>image/svg+xml</dc:format>
        <dc:type
           rdf:resource="http://purl.org/dc/dcmitype/StillImage" />
        <dc:title></dc:title>
      </cc:Work>
    </rdf:RDF>
  </metadata>
  <g
     transform="translate(-69.486037,-85.869163)"
     id="layer1">
    <rect
       transform="scale(-1,1)"
       ry="0"
       y="97.436584"
       x="-88.031189"
       height="6.1458998"
       width="0.32605532"
       id="rect4769-3"
       style="fill:#28ffff;fill-opacity:1;fill-rule:evenodd;stroke:none;stroke-width:0.01679343;stroke-linecap:round;stroke-miterlimit:4;stroke-dasharray:none;stroke-dashoffset:0;stroke-opacity:1" />
    <g
       style="fill:#fff;fill-opacity:1;stroke:none"
       transform="matrix(-0.19036709,0,0,0.25408995,71.886408,38.397734)"
       id="g4891">
      <rect
         style="fill:#fff;fill-opacity:1;fill-rule:evenodd;stroke:none;stroke-width:0.20882758;stroke-linecap:round;stroke-miterlimit:4;stroke-dasharray:none;stroke-dashoffset:0;stroke-opacity:1"
         id="rect4769-2"
         width="12.810781"
         height="24.187893"
         x="-79.819595"
         y="232.35417"
         ry="3.9422255" />
      <rect
         style="fill:#fff;fill-opacity:1;fill-rule:evenodd;stroke:none;stroke-width:0.17044659;stroke-linecap:round;stroke-miterlimit:4;stroke-dasharray:none;stroke-dashoffset:0;stroke-opacity:1"
         id="rect4769-2-9"
         width="8.5344677"
         height="24.187893"
         x="-79.819595"
         y="232.35417"
         ry="0" />
    </g>
    <path
       id="rect4769-2-8"
       d="m 87.75274,97.43663 c 0,0 -0.04769,0.44667 -0.04769,1.00159 v 4.83126 l 0.06978,0.31292 h 1.123784 c 0.002,0.40261 0.326692,0.72621 0.729815,0.72621 h 4.239903 c 0.403127,0 0.727713,-0.3236 0.729813,-0.72621 h 0.21603 c 0.554935,0 1.001585,-0.44666 1.001585,-1.00159 v -4.14259 c 0,-0.55492 -0.44665,-1.00159 -1.001585,-1.00159 z m 3.656598,0.83228 h 2.592173 c 0.314451,0 0.567593,0.25314 0.567593,0.56758 0,0.31445 -0.253142,0.5676 -0.567593,0.5676 h -2.592173 c -0.314448,0 -0.56759,-0.25315 -0.56759,-0.5676 0,-0.31444 0.253142,-0.56758 0.56759,-0.56758 z m 5.229807,0.17571 c -0.162571,0 -0.293452,0.13089 -0.293452,0.29346 v 3.54288 c 0,0.16256 0.130881,0.29345 0.293452,0.29345 0.162571,0 0.293459,-0.13089 0.293459,-0.29345 v -1.31882 h 1.542764 v -0.90525 h -1.542764 v -1.31881 c 0,-0.16257 -0.130888,-0.29346 -0.293459,-0.29346 z m -8.092501,0.46806 0.627642,0.01 0.69729,1.53581 H 89.12007 l 0.768047,1.96357 -1.759624,-2.38144 h 0.952795 z m 2.862694,1.02939 h 2.592173 c 0.314451,0 0.567593,0.25286 0.567593,0.56731 0,0.31445 -0.253142,0.56773 -0.567593,0.56773 h -2.592173 c -0.314448,0 -0.56759,-0.25328 -0.56759,-0.56773 0,-0.31445 0.253142,-0.56731 0.56759,-0.56731 z m 0,1.67287 h 2.592173 c 0.314451,0 0.567593,0.25315 0.567593,0.5676 0,0.31444 -0.253142,0.56759 -0.567593,0.56759 h -2.592173 c -0.314448,0 -0.56759,-0.25315 -0.56759,-0.56759 0,-0.31445 0.253142,-0.5676 0.56759,-0.5676 z"
       style="fill:#fff;fill-opacity:1;fill-rule:evenodd;stroke:none;stroke-width:0.03422324;stroke-linecap:round;stroke-miterlimit:4;stroke-dasharray:none;stroke-dashoffset:0;stroke-opacity:1" />
    <path
       id="path5316-6"
       d="m 72.69806,97.29281 v 0.007 a 1.1354072,2.2485132 0 0 0 -1.087999,2.24408 1.1354072,2.2485132 0 0 0 1.087999,2.24522 v 0.004 h 0.04738 8.951911 v -0.02 a 1.1354072,2.2708146 0 0 1 -0.925182,-2.22981 1.1354072,2.2708146 0 0 1 0.925182,-2.23028 v -0.0195 z m 9.399211,0.0181 a 1.1354072,2.2187776 0 0 0 -1.135605,2.21878 1.1354072,2.2187776 0 0 0 1.135605,2.21877 1.1354072,2.2187776 0 0 0 1.13537,-2.21877 1.1354072,2.2187776 0 0 0 -1.13537,-2.21878 z m 0.201452,1.53461 a 0.35010188,0.68415825 0 0 1 0.350022,0.68417 0.35010188,0.68415825 0 0 1 -0.350022,0.68417 0.35010188,0.68415825 0 0 1 -0.350247,-0.68417 0.35010188,0.68415825 0 0 1 0.350247,-0.68417 z m -9.622741,3.16235 -3.189945,3.18972 h 9.087595 l 3.123717,-3.18972 z"
       style="fill:#fff;fill-opacity:1;stroke:none;stroke-width:0.11774593px;stroke-linecap:butt;stroke-linejoin:miter;stroke-opacity:1" />
    <path
       id="path4964"
       d="m 83.775023,91.402231 c -0.381035,0.659972 -0.761764,1.320072 -1.143358,1.979717 h 2.734727 c 0.381007,-0.659923 0.762045,-1.319794 1.143052,-1.979717 z m 3.20859,0 c -0.381035,0.659972 -0.761768,1.320074 -1.143361,1.979717 h 2.734652 c 0.381006,-0.659923 0.762045,-1.319794 1.143052,-1.979717 z m 3.208512,0 c -0.381035,0.659972 -0.761768,1.320074 -1.143362,1.979717 h 2.734727 c 0.381006,-0.659923 0.761964,-1.319794 1.142979,-1.979717 z m -7.797159,2.453889 c -0.381035,0.65997 -0.761768,1.32015 -1.143362,1.97979 h 2.734652 c 0.381006,-0.65992 0.762045,-1.31987 1.143051,-1.97979 z m 3.208511,0 c -0.381035,0.65997 -0.761768,1.32015 -1.143361,1.97979 h 2.734726 c 0.38101,-0.65992 0.761967,-1.31987 1.142977,-1.97979 z m 3.208512,0 c -0.381035,0.65997 -0.761768,1.32015 -1.143362,1.97979 h 2.734727 c 0.38101,-0.65992 0.762045,-1.31987 1.143051,-1.97979 z"
       style="fill:#fff;fill-opacity:1;stroke:none;stroke-width:0.03951406px;stroke-linecap:butt;stroke-linejoin:miter;stroke-opacity:1" />
    <path
       id="path5017"
       d="m 80.564624,96.20095 2.964839,-5.21606 10.11771,-0.01996 -3.004323,5.21606 z"
       style="fill:none;stroke:#fff;stroke-width:0.20390511;stroke-linecap:butt;stroke-linejoin:miter;stroke-miterlimit:4;stroke-dasharray:none;stroke-opacity:1" />
    <circle
       r="1.2900926"
       cy="88.267548"
       cx="82.221626"
       id="path5019"
       style="fill:#fff;fill-opacity:1;fill-rule:evenodd;stroke:none;stroke-width:0.12190576;stroke-linecap:round;stroke-linejoin:round;stroke-miterlimit:4;stroke-dasharray:none;stroke-dashoffset:0;stroke-opacity:1;paint-order:normal" />
    <g
       style="fill:#fff;fill-opacity:1"
       transform="matrix(0.0866646,0,0,0.0866646,101.52715,98.19151)"
       id="g5059">
      <path
         style="fill:#fff;fill-opacity:1;fill-rule:evenodd;stroke:none;stroke-width:1.18699992;stroke-linecap:round;stroke-linejoin:round;stroke-miterlimit:4;stroke-dasharray:none;stroke-dashoffset:0;stroke-opacity:1;paint-order:normal"
         id="path5021-7"
         d="m -221.7326,-111.08805 -13.23818,18.491767 18.30453,13.495894 -21.67754,-6.875985 -7.17895,21.5791 -0.15927,-22.741361 -22.74136,-0.159277 21.5791,-7.178949 -6.87599,-21.677539 13.49589,18.304527 z"
         transform="rotate(51.851424,-207.54414,-84.234373)" />
      <path
         style="fill:#fff;fill-opacity:1;fill-rule:evenodd;stroke:none;stroke-width:1.18699992;stroke-linecap:round;stroke-linejoin:round;stroke-miterlimit:4;stroke-dasharray:none;stroke-dashoffset:0;stroke-opacity:1;paint-order:normal"
         id="path5021-7-6"
         d="m -221.7326,-111.08805 -13.23818,18.491767 18.30453,13.495894 -21.67754,-6.875985 -7.17895,21.5791 -0.15927,-22.741361 -22.74136,-0.159277 21.5791,-7.178949 -6.87599,-21.677539 13.49589,18.304527 z"
         transform="rotate(86.707197,-219.34851,-93.54956)" />
    </g>
    <path
       transform="matrix(0.02582189,0.0716465,-0.0716465,0.02582189,81.90728,107.85679)"
       d="m -221.7326,-111.08805 -13.23818,18.491767 18.30453,13.495894 -21.67754,-6.875985 -7.17895,21.5791 -0.15927,-22.741361 -22.74136,-0.159277 21.5791,-7.178949 -6.87599,-21.677539 13.49589,18.304527 z"
       id="path5021-7-0"
       style="fill:#fff;fill-opacity:1;fill-rule:evenodd;stroke:none;stroke-width:1.18699992;stroke-linecap:round;stroke-linejoin:round;stroke-miterlimit:4;stroke-dasharray:none;stroke-dashoffset:0;stroke-opacity:1;paint-order:normal" />
    <path
       transform="matrix(-0.01975762,0.07355017,-0.07355017,-0.01975762,70.73852,104.14056)"
       d="m -221.7326,-111.08805 -13.23818,18.491767 18.30453,13.495894 -21.67754,-6.875985 -7.17895,21.5791 -0.15927,-22.741361 -22.74136,-0.159277 21.5791,-7.178949 -6.87599,-21.677539 13.49589,18.304527 z"
       id="path5021-7-6-8"
       style="fill:#fff;fill-opacity:1;fill-rule:evenodd;stroke:none;stroke-width:1.18699992;stroke-linecap:round;stroke-linejoin:round;stroke-miterlimit:4;stroke-dasharray:none;stroke-dashoffset:0;stroke-opacity:1;paint-order:normal" />
  </g>
</svg>
