<?xml version="1.0" encoding="UTF-8" standalone="no"?>
<svg
   xmlns:dc="http://purl.org/dc/elements/1.1/"
   xmlns:cc="http://creativecommons.org/ns#"
   xmlns:rdf="http://www.w3.org/1999/02/22-rdf-syntax-ns#"
   xmlns:svg="http://www.w3.org/2000/svg"
   xmlns="http://www.w3.org/2000/svg"
   id="svg8"
   version="1.1"
   viewBox="0 0 24.582223 20.884959"
   height="20.88496mm"
   width="24.582224mm">
  <defs
     id="defs2">
    <clipPath
       id="clipPath4508"
       clipPathUnits="userSpaceOnUse">
      <rect
         y="-1329.7518"
         x="-1176.0563"
         height="220.05128"
         width="335.96713"
         id="rect4510"
         style="fill:#ff0000;fill-opacity:1;fill-rule:evenodd;stroke:none;stroke-width:15.29058743;stroke-linecap:round;stroke-linejoin:round;stroke-miterlimit:4;stroke-dasharray:none;stroke-dashoffset:0;stroke-opacity:1;paint-order:normal" />
    </clipPath>
  </defs>
  <metadata
     id="metadata5">
    <rdf:RDF>
      <cc:Work
         rdf:about="">
        <dc:format>image/svg+xml</dc:format>
        <dc:type
           rdf:resource="http://purl.org/dc/dcmitype/StillImage" />
        <dc:title></dc:title>
      </cc:Work>
    </rdf:RDF>
  </metadata>
  <g
     transform="translate(-43.958874,-85.257569)"
     id="layer1">
    <path
       id="path5334-1-6"
       d="m 56.255409,92.986815 -0.903395,0.524486 -0.3944,0.394398 -0.33691,0.580383 -2.273383,2.273387 -1.204845,-1.204771 a 1.7668423,1.7668423 0 0 0 -0.403109,-1.868673 1.7668423,1.7668423 0 0 0 -1.645249,-0.471626 l 1.067262,1.067257 c 0.148276,0.148279 0.148276,0.386989 0,0.535268 l -0.789845,0.789841 c -0.148275,0.148279 -0.386986,0.148279 -0.535265,0 l -1.066219,-1.066298 a 1.7668423,1.7668423 0 0 0 0.470581,1.644287 1.7668423,1.7668423 0 0 0 1.869081,0.403347 l 1.204449,1.204526 -0.22631,0.226311 -0.07538,-0.07538 c -0.05836,-0.05836 -0.152381,-0.05836 -0.210737,0 l -0.01989,0.01991 c -0.140658,-0.09502 -0.349546,-0.06506 -0.494858,0.08025 l -2.609492,2.609562 c -0.145519,0.14553 -0.175444,0.35483 -0.07994,0.49551 -0.05301,0.0587 -0.05175,0.14836 0.0047,0.2049 l 0.592445,0.59244 c 0.05653,0.0566 0.146277,0.0579 0.204905,0.005 0.140671,0.0955 0.350051,0.0656 0.495579,-0.0799 l 2.609491,-2.609484 c 0.14532,-0.145315 0.175293,-0.354197 0.08026,-0.49486 l 0.01988,-0.01991 c 0.05836,-0.05836 0.05836,-0.152375 0,-0.210737 l -0.07539,-0.07538 0.22639,-0.226388 1.204443,1.204531 a 1.7668423,1.7668423 0 0 0 0.403429,1.869068 1.7668423,1.7668423 0 0 0 1.64421,0.47059 l -1.06622,-1.06622 c -0.148279,-0.14828 -0.148279,-0.38699 0,-0.53527 l 0.789764,-0.789838 c 0.148276,-0.148273 0.386986,-0.148198 0.535265,8.2e-5 l 1.067258,1.067256 a 1.7668423,1.7668423 0 0 0 -0.47157,-1.645721 1.7668423,1.7668423 0 0 0 -1.868681,-0.403189 l -1.204845,-1.20477 2.273464,-2.273462 0.580383,-0.336827 0.394404,-0.39448 0.524485,-0.903396 z m -5.675192,5.329982 c 0.03432,0 0.06858,0.01317 0.09487,0.03945 0.05258,0.0526 0.05258,0.137311 0,0.189895 l -2.409295,2.409298 c -0.05258,0.0526 -0.137315,0.0526 -0.189892,0 -0.05258,-0.0526 -0.05258,-0.13724 0,-0.18983 l 2.409372,-2.409363 c 0.0263,-0.02628 0.06063,-0.03945 0.09495,-0.03945 z m 0.516659,0.516735 c 0.03432,0 0.06865,0.01317 0.09495,0.03943 0.05258,0.0526 0.05258,0.137236 0,0.189814 l -2.409377,2.409374 c -0.05258,0.0526 -0.137231,0.0526 -0.189814,0 -0.05258,-0.0526 -0.05258,-0.13724 0,-0.18981 l 2.409376,-2.409378 c 0.0263,-0.02628 0.06056,-0.03943 0.09487,-0.03943 z"
       style="fill:#bebec0;fill-opacity:1;fill-rule:evenodd;stroke:none;stroke-width:0.32350931;stroke-linecap:round;stroke-linejoin:round;stroke-miterlimit:4;stroke-dasharray:none;stroke-dashoffset:0;stroke-opacity:1;paint-order:normal" />
    <path
       id="rect5136-9"
       d="m 47.875429,85.257569 -3.916555,0.646028 0.188776,1.140082 3.322274,-0.54796 0.748399,0.768201 c -0.03587,0.15008 -0.04238,0.309223 -0.01629,0.471304 l 0.405019,2.454572 c 0.02674,0.161956 0.08505,0.311378 0.16658,0.442157 l -0.461801,0.967839 -3.322274,0.54876 0.187897,1.140088 3.916636,-0.646665 0.694018,-1.45184 c 0.06457,0 0.129766,-0.0033 0.195641,-0.01311 l 0.902357,-0.149329 c 0.654594,-0.108077 1.094872,-0.722313 0.986926,-1.376937 l -0.06692,-0.408134 2.261168,-0.372682 a 1.9489362,1.9489362 0 0 0 1.605798,0.84558 1.9489362,1.9489362 0 0 0 0.385298,-0.03879 l 5.640934,4.742489 a 3.2662729,3.2662729 0 0 0 -0.05446,0.584218 3.2662729,3.2662729 0 0 0 0.103413,0.79663 l -6.388376,6.67346 h 4.297939 c 0.168865,0 0.304807,0.13594 0.304807,0.3048 0,0.16887 -0.135942,0.30481 -0.304807,0.30481 h -7.125594 c -1.766172,0.0487 -3.203891,1.35512 -3.461785,3.05939 h 19.47065 c -0.263008,-1.73706 -1.751099,-3.06171 -3.563753,-3.06171 h -2.565093 l 2.809051,-4.826177 a 3.2662729,3.2662729 0 0 0 2.956624,-3.251203 3.2662729,3.2662729 0 0 0 -3.266141,-3.266136 3.2662729,3.2662729 0 0 0 -0.244594,0.013 L 57.6177,87.673399 a 1.9489362,1.9489362 0 0 0 -1.944463,-1.85534 1.9489362,1.9489362 0 0 0 -1.872753,1.413189 l -2.26508,0.3742 -0.06683,-0.408222 c -0.108113,-0.654622 -0.722314,-1.095119 -1.376937,-0.98684 l -0.90316,0.149329 c -0.06588,0.01045 -0.127868,0.02845 -0.188853,0.05124 z m 7.79789,1.327106 a 1.1819936,1.1819936 0 0 1 1.181852,1.182727 1.1819936,1.1819936 0 0 1 -1.181852,1.181851 1.1819936,1.1819936 0 0 1 -1.181847,-1.181851 1.1819936,1.1819936 0 0 1 1.181847,-1.182727 z m 0,0.622945 a 0.55941691,0.55941691 0 0 0 -0.55898,0.559782 0.55941691,0.55941691 0 0 0 0.55898,0.558905 0.55941691,0.55941691 0 0 0 0.559781,-0.558905 0.55941691,0.55941691 0 0 0 -0.559781,-0.559782 z m 9.238711,5.81542 a 1.9809337,1.9809337 0 0 1 1.980873,1.980875 1.9809337,1.9809337 0 0 1 -1.980873,1.980875 1.9809337,1.9809337 0 0 1 -1.981595,-1.980875 1.9809337,1.9809337 0 0 1 1.981595,-1.980875 z m 0,1.043782 a 0.93754125,0.93754125 0 0 0 -0.937895,0.937093 0.93754125,0.93754125 0 0 0 0.937895,0.937897 0.93754125,0.93754125 0 0 0 0.937172,-0.937897 0.93754125,0.93754125 0 0 0 -0.937172,-0.937093 z"
       style="fill:#bebec0;fill-opacity:1;fill-rule:evenodd;stroke:none;stroke-width:2.43442345;stroke-linecap:round;stroke-linejoin:round;stroke-miterlimit:4;stroke-dasharray:none;stroke-dashoffset:0;stroke-opacity:1;paint-order:normal" />
  </g>
</svg>
